<?xml version="1.0" encoding="utf-8"?>
<!-- Generator: Adobe Illustrator 27.7.0, SVG Export Plug-In . SVG Version: 6.00 Build 0)  -->
<svg version="1.1" id="레이어_1" xmlns="http://www.w3.org/2000/svg" xmlns:xlink="http://www.w3.org/1999/xlink" x="0px"
	 y="0px" viewBox="0 0 78 56" style="enable-background:new 0 0 78 56;" xml:space="preserve">
<style type="text/css">
	.st0{fill:url(#SVGID_1_);}
	.st1{fill:url(#SVGID_00000050639445115098894800000010062838086355209614_);}
	.st2{fill:url(#SVGID_00000101104609232533549310000001452527230195748248_);}
	.st3{fill:url(#SVGID_00000012462724933574877050000015683269101175551396_);}
	.st4{fill:url(#SVGID_00000129167403796609140410000013434213624639732630_);}
</style>
<g>
	<linearGradient id="SVGID_1_" gradientUnits="userSpaceOnUse" x1="23.1711" y1="8.3272" x2="16.9841" y2="35.8328">
		<stop  offset="0" style="stop-color:#E0B411"/>
		<stop  offset="1" style="stop-color:#BE7F0F"/>
	</linearGradient>
	<path class="st0" d="M23,21.2h5.3v-7.4H23c-6.2,0-11.3,5.1-11.3,11.3v7.4C11.7,26.3,16.7,21.2,23,21.2z"/>
	
		<linearGradient id="SVGID_00000022520378743964981530000006821833977799725956_" gradientUnits="userSpaceOnUse" x1="23.3474" y1="28.9714" x2="16.538" y2="59.2444">
		<stop  offset="0" style="stop-color:#E0B411"/>
		<stop  offset="1" style="stop-color:#BE7F0F"/>
	</linearGradient>
	<path style="fill:url(#SVGID_00000022520378743964981530000006821833977799725956_);" d="M23,34.8c-6.2,0-11.3,5.1-11.3,11.3v9.7
		L28.3,43v-8.2H23z"/>
	
		<linearGradient id="SVGID_00000024691459858428216840000000283244921152276867_" gradientUnits="userSpaceOnUse" x1="56.9394" y1="37.9633" x2="49.0224" y2="26.9696">
		<stop  offset="0" style="stop-color:#D39924"/>
		<stop  offset="1" style="stop-color:#B1810D"/>
	</linearGradient>
	<path style="fill:url(#SVGID_00000024691459858428216840000000283244921152276867_);" d="M43,34.8l4-0.1c1.4,0,3.3,1.4,3.3,3.7
		c0,2.3-2,3.7-3.3,3.7h2.6c8.1,0,16-7.8,12.9-14.6l0,0c-1.1-1.4-2.4-2.6-3.9-3.6C56,30.2,50,34.6,43,34.8z"/>
	
		<linearGradient id="SVGID_00000142138227058040250430000013088993255957148068_" gradientUnits="userSpaceOnUse" x1="11.687" y1="23.1567" x2="59.8587" y2="23.1567">
		<stop  offset="0" style="stop-color:#ECCC43"/>
		<stop  offset="1" style="stop-color:#FBAF33"/>
	</linearGradient>
	<path style="fill:url(#SVGID_00000142138227058040250430000013088993255957148068_);" d="M11.7,46.1c0-6.2,5.1-11.3,11.3-11.3h19.6
		c9.6,0,17.3-7.8,17.3-17.3c0-9.6-7.8-17.3-17.3-17.3H23c-6.2,0-11.3,5.1-11.3,11.3v13.6c0-6.2,5.1-11.3,11.3-11.3h17.6
		c1.4,0,3.3,1.4,3.3,3.7c0,2.3-2,3.7-3.3,3.7H23c-6.2,0-11.3,5.1-11.3,11.3v2.3V46.1z"/>
	
		<linearGradient id="SVGID_00000068645597145126099150000005988318735111936933_" gradientUnits="userSpaceOnUse" x1="11.687" y1="41.7226" x2="66.313" y2="41.7226">
		<stop  offset="0" style="stop-color:#F5D219"/>
		<stop  offset="1" style="stop-color:#FBAF33"/>
	</linearGradient>
	<path style="fill:url(#SVGID_00000068645597145126099150000005988318735111936933_);" d="M11.7,55.8H49c9.6,0,17.3-7.8,17.3-17.3
		c0-4.1-1.4-7.9-3.8-10.9l0,0c3.1,6.8-4.8,14.6-12.9,14.6H23c-6.2,0-11.3,5.1-11.3,11.3V55.8z"/>
</g>
</svg>
