<?xml version="1.0" encoding="utf-8"?>
<!-- Generator: Adobe Illustrator 27.3.1, SVG Export Plug-In . SVG Version: 6.00 Build 0)  -->
<svg version="1.1" id="BI" xmlns="http://www.w3.org/2000/svg" xmlns:xlink="http://www.w3.org/1999/xlink" x="0px" y="0px"
	 viewBox="0 0 2049.6 390.8" style="enable-background:new 0 0 2049.6 390.8;" xml:space="preserve">
<style type="text/css">
	.st0{fill:url(#SVGID_1_);}
	.st1{fill:url(#SVGID_00000085223842179121394570000017875233434036029573_);}
	.st2{fill:url(#SVGID_00000150795481935996105070000004776149448655361665_);}
	.st3{fill:url(#SVGID_00000054964740912136566670000003957764533806459544_);}
	.st4{fill:url(#SVGID_00000144318211479707366000000002355331422839313855_);}
	.st5{fill:url(#SVGID_00000010989287118995708260000003985900651497295754_);}
	.st6{fill:url(#SVGID_00000015328915323221335060000004586010057392539578_);}
	.st7{fill:#FFFFFF;}
</style>
<g>
	<g>
		<linearGradient id="SVGID_1_" gradientUnits="userSpaceOnUse" x1="191.0865" y1="26.6346" x2="191.0865" y2="390.8076">
			<stop  offset="5.154639e-03" style="stop-color:#FED208"/>
			<stop  offset="0.4061" style="stop-color:#FED00B"/>
			<stop  offset="0.6457" style="stop-color:#FDC913"/>
			<stop  offset="0.8422" style="stop-color:#FCBE21"/>
			<stop  offset="1" style="stop-color:#FBAF33"/>
		</linearGradient>
		<path class="st0" d="M331.5,26.6H304v2.2c0,2.3-1.9,4.2-4.2,4.2h-53.1c-2.3,0-4.2-1.9-4.2-4.2v-2.2H139.7v2.2
			c0,2.3-1.9,4.2-4.2,4.2H82.4c-2.3,0-4.2-1.9-4.2-4.2v-2.2H50.7C27.7,26.6,9,45.3,9,68.3v280.8c0,23,18.7,41.7,41.7,41.7h280.8
			c23,0,41.7-18.7,41.7-41.7V68.3C373.2,45.3,354.5,26.6,331.5,26.6z"/>
		
			<linearGradient id="SVGID_00000047035314113345489880000004962865662966453157_" gradientUnits="userSpaceOnUse" x1="78.2045" y1="13.3173" x2="139.6747" y2="13.3173">
			<stop  offset="5.154639e-03" style="stop-color:#FED208"/>
			<stop  offset="0.8626" style="stop-color:#FED208"/>
			<stop  offset="1" style="stop-color:#FED208"/>
		</linearGradient>
		<path style="fill:url(#SVGID_00000047035314113345489880000004962865662966453157_);" d="M139.7,4.2c0-2.3-1.9-4.2-4.2-4.2H82.4
			c-2.3,0-4.2,1.9-4.2,4.2v22.5h61.5V4.2z"/>
		
			<linearGradient id="SVGID_00000122691935549942362590000018315527121315742096_" gradientUnits="userSpaceOnUse" x1="108.9396" y1="26.6346" x2="108.9396" y2="390.8076">
			<stop  offset="5.154639e-03" style="stop-color:#FED208"/>
			<stop  offset="0.4061" style="stop-color:#FED00B"/>
			<stop  offset="0.6457" style="stop-color:#FDC913"/>
			<stop  offset="0.8422" style="stop-color:#FCBE21"/>
			<stop  offset="1" style="stop-color:#FBAF33"/>
		</linearGradient>
		<path style="fill:url(#SVGID_00000122691935549942362590000018315527121315742096_);" d="M82.4,33h53.1c2.3,0,4.2-1.9,4.2-4.2
			v-2.2H78.2v2.2C78.2,31.1,80.1,33,82.4,33z"/>
		
			<linearGradient id="SVGID_00000083076010015592806010000014601253126547995054_" gradientUnits="userSpaceOnUse" x1="78.2045" y1="29.8031" x2="139.6747" y2="29.8031">
			<stop  offset="5.154639e-03" style="stop-color:#FED208"/>
			<stop  offset="0.8626" style="stop-color:#FED208"/>
			<stop  offset="1" style="stop-color:#FED208"/>
		</linearGradient>
		<path style="fill:url(#SVGID_00000083076010015592806010000014601253126547995054_);" d="M82.4,33h53.1c2.3,0,4.2-1.9,4.2-4.2
			v-2.2H78.2v2.2C78.2,31.1,80.1,33,82.4,33z"/>
		
			<linearGradient id="SVGID_00000124865751874745543310000008426531676451354515_" gradientUnits="userSpaceOnUse" x1="242.4983" y1="13.3173" x2="303.9685" y2="13.3173">
			<stop  offset="5.154639e-03" style="stop-color:#FED208"/>
			<stop  offset="0.8626" style="stop-color:#FED208"/>
			<stop  offset="1" style="stop-color:#FED208"/>
		</linearGradient>
		<path style="fill:url(#SVGID_00000124865751874745543310000008426531676451354515_);" d="M304,4.2c0-2.3-1.9-4.2-4.2-4.2h-53.1
			c-2.3,0-4.2,1.9-4.2,4.2v22.5H304V4.2z"/>
		
			<linearGradient id="SVGID_00000001657775238657808080000014201677322438736551_" gradientUnits="userSpaceOnUse" x1="273.2334" y1="26.6346" x2="273.2334" y2="390.8076">
			<stop  offset="5.154639e-03" style="stop-color:#FED208"/>
			<stop  offset="0.4061" style="stop-color:#FED00B"/>
			<stop  offset="0.6457" style="stop-color:#FDC913"/>
			<stop  offset="0.8422" style="stop-color:#FCBE21"/>
			<stop  offset="1" style="stop-color:#FBAF33"/>
		</linearGradient>
		<path style="fill:url(#SVGID_00000001657775238657808080000014201677322438736551_);" d="M246.7,33h53.1c2.3,0,4.2-1.9,4.2-4.2
			v-2.2h-61.5v2.2C242.5,31.1,244.4,33,246.7,33z"/>
		
			<linearGradient id="SVGID_00000118368006506940219640000009806058033211905190_" gradientUnits="userSpaceOnUse" x1="242.4983" y1="29.8031" x2="303.9685" y2="29.8031">
			<stop  offset="5.154639e-03" style="stop-color:#FED208"/>
			<stop  offset="0.8626" style="stop-color:#FED208"/>
			<stop  offset="1" style="stop-color:#FED208"/>
		</linearGradient>
		<path style="fill:url(#SVGID_00000118368006506940219640000009806058033211905190_);" d="M246.7,33h53.1c2.3,0,4.2-1.9,4.2-4.2
			v-2.2h-61.5v2.2C242.5,31.1,244.4,33,246.7,33z"/>
	</g>
	<g>
		<g>
			<path class="st7" d="M216,153c-4.5,0-9.2,0.6-14,1.7c-2.1,0.5-4.4-0.2-5.8-1.9c-11.2-13.3-27.6-20.9-44.9-20.9
				c-32.5,0-58.9,26.5-58.9,58.9c0,1.8,0.1,3.6,0.3,5.3c0.2,2.3-1,4.6-3.1,5.7C75.1,209.6,66,224.6,66,241
				c0,24.4,19.9,44.3,44.3,44.3h161.5c24.4,0,44.3-19.9,44.3-44.3c0-22.7-17-41.6-39.5-44c-2.2-0.2-4.1-1.8-4.9-3.9
				C263.7,169.1,241.3,153,216,153L216,153z M54.4,241.1c0-19.5,10-37.3,26.5-47.5c-0.1-0.9-0.1-1.7-0.1-2.6
				c0-38.9,31.6-70.5,70.5-70.5c19.5,0,38.1,8.1,51.5,22.3c4.5-0.9,8.9-1.3,13.3-1.3c29.1,0,55,17.8,65.6,44.6
				c26.6,4.6,46.2,27.7,46.2,55.1c0,30.9-25.1,56-56,56H110.3C79.5,297,54.4,271.9,54.4,241.1z"/>
			<path class="st7" d="M216,153c-4.5,0-9.2,0.6-14,1.7c-2.1,0.5-4.4-0.2-5.8-1.9c-11.2-13.3-27.6-20.9-44.9-20.9
				c-32.5,0-58.9,26.5-58.9,58.9c0,1.8,0.1,3.6,0.3,5.3c0.2,2.3-1,4.6-3.1,5.7C75.1,209.6,66,224.6,66,241
				c0,24.4,19.9,44.3,44.3,44.3h161.5c24.4,0,44.3-19.9,44.3-44.3c0-22.7-17-41.6-39.5-44c-2.2-0.2-4.1-1.8-4.9-3.9
				C263.7,169.1,241.3,153,216,153L216,153z M54.4,241.1c0-19.5,10-37.3,26.5-47.5c-0.1-0.9-0.1-1.7-0.1-2.6
				c0-38.9,31.6-70.5,70.5-70.5c19.5,0,38.1,8.1,51.5,22.3c4.5-0.9,8.9-1.3,13.3-1.3c29.1,0,55,17.8,65.6,44.6
				c26.6,4.6,46.2,27.7,46.2,55.1c0,30.9-25.1,56-56,56H110.3C79.5,297,54.4,271.9,54.4,241.1z"/>
		</g>
	</g>
</g>
<g>
	<path class="st7" d="M549.8,301.6V89.2h115.9c24.1,0,41.6,5.7,52.7,17c11,11.3,16.6,24.2,16.6,38.7c0,10.6-3.2,20.2-9.6,28.7
		c-6.4,8.6-16,14.4-28.7,17.7c29.5,6.6,44.3,23.1,44.3,49.5c0,15.8-5.2,29.9-15.6,42.3c-10.4,12.4-32.7,18.6-66.8,18.6H549.8z
		 M614.4,170.6h32.4c8.1,0,13.9-1.9,17.2-5.8c3.3-3.8,5-7.9,5-12.3c0-11.8-7.8-17.7-23.4-17.7h-31.3V170.6z M614.4,254.3h34.1
		c8.5,0,14.7-1.9,18.6-5.8c4-3.9,5.9-8.3,5.9-13.1c0-4.9-1.9-9.4-5.8-13.5c-3.8-4.1-10.9-6.1-21.2-6.1h-31.8V254.3z"/>
	<path class="st7" d="M840,89.2v212.4h-70.1V89.2H840z"/>
	<path class="st7" d="M1055.6,251.5v50.1h-190V261l101.2-122.6h-93.5V89.2h179.1v41.2l-98.2,121.1H1055.6z"/>
	<path class="st7" d="M1068.9,250.4l40-7.9c4.8,21.1,23.2,31.6,55.2,31.6c14.6,0,25.8-2.7,33.7-8.1c7.9-5.4,11.8-12.1,11.8-20.1
		c0-5.8-1.8-11.2-5.4-16.1c-3.6-4.9-11.2-8.8-22.9-11.6l-43.6-10.6c-14.9-3.6-26-7.8-33.1-12.4c-7.1-4.6-12.9-11.1-17.1-19.5
		c-4.3-8.4-6.4-17.4-6.4-26.9c0-19,7.6-34.2,22.7-45.7c15.2-11.5,34.6-17.2,58.2-17.2c19.6,0,37.2,4,52.6,12
		c15.4,8,25.3,19.3,29.5,33.9l-39.1,9c-6-16.1-20.1-24.1-42.1-24.1c-12.8,0-22.6,2.5-29.4,7.5c-6.7,5-10.1,11.3-10.1,19
		c0,12.1,10.6,20.6,31.8,25.5l38.8,9c23.5,5.5,39.3,13.6,47.3,24.4c8,10.7,12,22.6,12,35.6c0,20.9-8.4,37.3-25.3,49.3
		c-16.9,12-38.8,18-65.6,18c-22.6,0-42.5-4.4-59.5-13.2C1085.7,282.8,1074.5,269.1,1068.9,250.4z"/>
	<path class="st7" d="M1368.2,301.6h-44.2V122h-60.7V89.2H1429V122h-60.7V301.6z"/>
	<path class="st7" d="M1533.3,304.9c-30.3,0-53.9-10.6-70.8-31.7c-16.9-21.2-25.3-47.3-25.3-78.4c0-30.9,9-56.8,26.9-77.6
		c17.9-20.8,41.6-31.2,71.1-31.2c29.7,0,53.1,10.4,70.3,31.2c17.2,20.8,25.8,46.8,25.8,78c0,32.8-8.9,59.3-26.8,79.4
		C1586.6,294.8,1562.9,304.9,1533.3,304.9z M1533.6,274.1c14.8,0,27.4-5.7,37.6-17.1c10.3-11.4,15.4-32.1,15.4-62.1
		c0-24.4-4.2-43.5-12.7-57.3c-8.5-13.9-21.6-20.8-39.5-20.8c-35.2,0-52.8,26.4-52.8,79.2c0,25.6,4.5,45.1,13.5,58.3
		C1504.1,267.5,1516.9,274.1,1533.6,274.1z"/>
	<path class="st7" d="M1847.6,301.6h-43.5l-35.5-87.3h-57.9v87.3h-41.1V89.2h99c27.5,0,47.8,5.8,60.7,17.4
		c12.9,11.6,19.4,26.5,19.4,44.9c0,27.3-13.7,46.1-41.1,56.3L1847.6,301.6z M1710.8,183.7h51.2c14.8,0,25.9-2.9,33.1-8.7
		c7.2-5.8,10.9-13.8,10.9-24c0-9.3-3.6-16.9-10.7-22.6c-7.1-5.8-17.1-8.6-29.9-8.6h-54.5V183.7z"/>
	<path class="st7" d="M1975.7,301.6H1932V212l-77.8-122.8h49.8l54.2,87.6l51.8-87.6h39.5L1975.7,212V301.6z"/>
</g>
</svg>
