<?xml version="1.0" encoding="UTF-8"?>
<svg id="BI" xmlns="http://www.w3.org/2000/svg" xmlns:xlink="http://www.w3.org/1999/xlink" viewBox="0 0 2525.63 390.81">
  <defs>
    <style>
      .cls-1 {
        fill: #1e1e2d;
      }

      .cls-2 {
        fill: url(#_무제_그라디언트_12);
      }

      .cls-3 {
        fill: url(#_무제_그라디언트_38);
      }

      .cls-4 {
        fill: url(#_무제_그라디언트_37);
      }

      .cls-5 {
        fill: url(#_무제_그라디언트_40);
      }

      .cls-6 {
        fill: url(#_무제_그라디언트_38-2);
      }
    </style>
    <linearGradient id="_무제_그라디언트_38" data-name="무제 그라디언트 38" x1="80.67" y1="57.21" x2="37.21" y2="250.43" gradientUnits="userSpaceOnUse">
      <stop offset="0" stop-color="#e0b411"/>
      <stop offset="1" stop-color="#be7f0f"/>
    </linearGradient>
    <linearGradient id="_무제_그라디언트_38-2" data-name="무제 그라디언트 38" x1="81.91" y1="202.23" x2="34.08" y2="414.89" xlink:href="#_무제_그라디언트_38"/>
    <linearGradient id="_무제_그라디언트_37" data-name="무제 그라디언트 37" x1="317.89" y1="265.39" x2="262.27" y2="188.17" gradientUnits="userSpaceOnUse">
      <stop offset="0" stop-color="#d39924"/>
      <stop offset="1" stop-color="#b1810d"/>
    </linearGradient>
    <linearGradient id="_무제_그라디언트_40" data-name="무제 그라디언트 40" x1="0" y1="161.38" x2="338.4" y2="161.38" gradientUnits="userSpaceOnUse">
      <stop offset="0" stop-color="#eccc43"/>
      <stop offset="1" stop-color="#fbaf33"/>
    </linearGradient>
    <linearGradient id="_무제_그라디언트_12" data-name="무제 그라디언트 12" x1="0" y1="291.8" x2="383.74" y2="291.8" gradientUnits="userSpaceOnUse">
      <stop offset="0" stop-color="#f5d219"/>
      <stop offset="1" stop-color="#fbaf33"/>
    </linearGradient>
  </defs>
  <g>
    <path class="cls-3" d="m79.35,147.8h37.14v-52.18h-37.14C35.52,95.62,0,131.14,0,174.97v52.18c0-43.82,35.52-79.35,79.35-79.35Z"/>
    <path class="cls-6" d="m79.35,243.41C35.52,243.41,0,278.94,0,322.76v68.05l116.48-89.75v-57.64h-37.14Z"/>
    <path class="cls-4" d="m219.85,243.37l28.27-.36c9.51,0,23.33,10.16,23.33,26.09s-13.82,26.09-23.33,26.09h18.14c56.57,0,112.11-54.78,90.57-102.38h0c-7.81-9.69-17.07-18.16-27.45-25.07-17.78,43.47-59.97,74.38-109.53,75.64Z"/>
    <path class="cls-5" d="m0,322.76c0-43.82,35.52-79.35,79.35-79.35h137.34c67.22,0,121.71-54.49,121.71-121.71S283.91,0,216.69,0H79.35C35.52,0,0,35.52,0,79.35v95.62c0-43.82,35.52-79.35,79.35-79.35h123.43c9.52,0,23.33,10.16,23.33,26.09s-13.82,26.09-23.33,26.09h-123.43C35.52,147.8,0,183.32,0,227.14v95.62Z"/>
    <path class="cls-2" d="m0,390.81h262.03c67.22,0,121.71-54.49,121.71-121.71,0-28.9-10.07-55.43-26.9-76.3h0c21.54,47.62-34.01,102.39-90.57,102.39H79.35c-43.82,0-79.35,35.52-79.35,79.35v16.27Z"/>
  </g>
  <g>
    <path class="cls-1" d="m789.11,205.16c6.63,9.5,9.95,21.92,9.95,37.26,0,27.31-8.26,48.52-24.78,63.6-16.52,14.96-41.1,22.44-73.75,22.44h-120.57c-2.86,0-5.27-.98-7.22-2.93-2.08-2.08-3.12-4.49-3.12-7.22V94.15c0-5.85-2.08-10.79-6.24-14.83-.91-.91-1.82-1.76-2.73-2.54-2.6-1.69-3.9-4.03-3.9-7.02,0-2.34.84-4.36,2.54-6.05,1.69-1.69,3.71-2.54,6.05-2.54l21.66.2h114.33c31.73,0,54.95,5.98,69.65,17.95,14.56,11.97,21.85,29.14,21.85,51.51.13,14.57-2.93,25.69-9.17,33.36-6.24,7.68-13.85,14.05-22.83,19.12,12.22,5.07,21.66,12.36,28.29,21.85Zm-151.59-39.21c0,1.43.52,2.67,1.56,3.71,1.04,1.04,2.21,1.56,3.51,1.56h50.73c8.58,0,14.63-1.95,18.14-5.85,3.38-3.9,5.07-9.69,5.07-17.36,0-7.15-1.63-12.75-4.88-16.78-3.38-4.16-9.5-6.24-18.34-6.24h-50.73c-1.3,0-2.47.52-3.51,1.56-1.04,1.04-1.56,2.28-1.56,3.71v35.7Zm78.62,91.31c4.29-4.94,6.44-11.25,6.44-18.92s-2.15-14.05-6.44-18.73c-4.29-4.55-10.93-6.83-19.9-6.83h-53.65c-1.3,0-2.47.52-3.51,1.56-1.04,1.04-1.56,2.21-1.56,3.51v41.75c0,1.43.52,2.6,1.56,3.51,1.04,1.04,2.21,1.56,3.51,1.56h53.26c9.23,0,16-2.47,20.29-7.41Z"/>
    <path class="cls-1" d="m899.34,61.18c2.86,0,5.33.98,7.41,2.93,1.95,2.08,2.93,4.55,2.93,7.41v246.6c0,2.86-.98,5.27-2.93,7.22-2.08,2.08-4.55,3.12-7.41,3.12h-51.12c-2.86,0-5.27-1.04-7.22-3.12-2.08-1.95-3.12-4.36-3.12-7.22V93.95c0-5.72-2.08-10.66-6.24-14.83-.91-.91-1.82-1.69-2.73-2.34-2.6-1.82-3.9-4.16-3.9-7.02,0-2.34.84-4.36,2.54-6.05,1.69-1.69,3.71-2.54,6.05-2.54h65.75Z"/>
    <path class="cls-1" d="m1058.15,259.2c-1.04,1.17-1.3,2.41-.78,3.71.39,1.17,1.37,1.76,2.93,1.76h86.82c5.85,0,10.79-2.08,14.83-6.24.91-.78,1.76-1.69,2.54-2.73,1.69-2.6,4.03-3.9,7.02-3.9,2.34,0,4.36.85,6.05,2.54,1.69,1.69,2.54,3.71,2.54,6.05v57.75c0,2.86-.98,5.27-2.93,7.22-2.08,2.08-4.49,3.12-7.22,3.12h-208.76c-2.73,0-5.14-1.04-7.22-3.12-1.95-1.95-2.93-4.36-2.93-7.22v-43.31c0-2.86,1.1-5.33,3.32-7.41l120.57-136.96c.91-1.17,1.17-2.34.78-3.51-.52-1.3-1.5-1.95-2.93-1.95h-111.4c-2.86,0-5.27-.98-7.22-2.93-2.08-2.08-3.12-4.49-3.12-7.22v-43.31c0-2.86.98-5.27,2.93-7.22,2.08-2.08,4.49-3.12,7.22-3.12h208.76c2.73,0,5.14,1.04,7.22,3.12,1.95,1.95,2.93,4.36,2.93,7.22v43.31c0,2.73-.98,5.07-2.93,7.02l-119.01,137.35Z"/>
    <path class="cls-1" d="m1399.38,177.45c7.67,3.12,14.56,6.96,20.68,11.51,18.47,13.79,27.7,34.14,27.7,61.07,0,24.06-9.04,44.29-27.12,60.68-20.94,18.99-50.34,28.48-88.18,28.48-27.7,0-51.38-5.4-71.02-16.19-19.77-10.93-32.97-26.08-39.6-45.46v-.2c-1.04-2.73-2.67-5.2-4.88-7.41-.78-.91-1.69-1.69-2.73-2.34-2.6-1.82-3.9-4.16-3.9-7.02,0-2.47.85-4.49,2.54-6.05,1.69-1.69,3.71-2.54,6.05-2.54h64.77c3.77,0,6.24,1.82,7.41,5.46,2.21,6.63,6.83,11.9,13.85,15.8,7.54,4.16,16.71,6.24,27.51,6.24,13,0,23.34-2.73,31.02-8.19,7.67-5.33,11.51-12.42,11.51-21.27,0-15.35-14.76-23.41-44.29-24.19-34.34-.91-60.94-8.65-79.8-23.22-19.9-15.48-29.85-36.03-29.85-61.65,0-23.67,9.3-43.96,27.9-60.87,20.81-18.99,48.64-28.48,83.5-28.48,30.69,0,55.99,7.02,75.89,21.07,20.29,14.18,31.93,33.62,34.92,58.33,0,2.08-.78,3.9-2.34,5.46-1.69,1.69-3.58,2.54-5.66,2.54h-57.75c-3.77,0-6.31-1.82-7.61-5.46-4.29-13.66-16.78-20.49-37.46-20.49-25.75,0-38.63,9.3-38.63,27.9,0,8.97,3.83,15.35,11.51,19.12,3.51,1.56,6.83,2.73,9.95,3.51,4.68,1.3,11.12,2.28,19.31,2.93,32.51,3.12,54.11,6.76,64.77,10.93Z"/>
    <path class="cls-1" d="m1698.27,61.18c2.86,0,5.33,1.04,7.41,3.12,1.95,1.95,2.93,4.36,2.93,7.22v43.12c0,2.86-1.04,5.27-3.12,7.22-1.95,2.08-4.36,3.12-7.22,3.12h-69.85c-1.3,0-2.47.52-3.51,1.56-1.04.91-1.56,2.08-1.56,3.51v188.07c0,2.86-1.04,5.27-3.12,7.22-1.95,2.08-4.36,3.12-7.22,3.12h-51.12c-2.86,0-5.33-1.04-7.41-3.12-1.95-1.95-2.93-4.36-2.93-7.22v-188.07c0-1.43-.52-2.6-1.56-3.51-1.04-1.04-2.21-1.56-3.51-1.56h-69.65c-2.86,0-5.34-1.04-7.41-3.12-1.95-1.95-2.93-4.36-2.93-7.22v-20.49c0-5.85-2.08-10.86-6.24-15.02-.91-.91-1.82-1.69-2.73-2.34-2.6-1.69-3.9-4.03-3.9-7.02,0-2.34.85-4.36,2.54-6.05,1.69-1.69,3.71-2.54,6.05-2.54h236.07Z"/>
    <path class="cls-1" d="m1858.64,51.62c39.67,0,73.49,14.05,101.45,42.14,28.09,27.97,42.14,61.78,42.14,101.45s-14.05,73.49-42.14,101.45c-27.97,28.09-61.78,42.14-101.45,42.14s-73.49-14.05-101.45-42.14c-28.09-27.96-42.14-61.78-42.14-101.45s14.05-73.48,42.14-101.45c27.96-28.09,61.78-42.14,101.45-42.14Zm0,217.92c19.64,0,36.42-7.28,50.34-21.85,13.78-14.44,20.68-31.93,20.68-52.48s-6.9-38.11-20.68-52.68c-13.92-14.44-30.7-21.66-50.34-21.66s-36.42,7.22-50.34,21.66c-13.79,14.57-20.68,32.13-20.68,52.68s6.89,38.04,20.68,52.48c13.92,14.57,30.69,21.85,50.34,21.85Z"/>
    <path class="cls-1" d="m2268.93,312.85c2.6,1.69,3.9,4.03,3.9,7.02,0,2.34-.85,4.36-2.54,6.05-1.69,1.69-3.71,2.54-6.05,2.54h-56.97c-4.42,0-7.54-1.95-9.36-5.85l-44.48-84.28c-.91-1.95-2.47-2.93-4.68-2.93h-42.14c-1.3,0-2.47.46-3.51,1.37-1.04,1.04-1.56,2.28-1.56,3.71v77.65c0,2.86-1.04,5.27-3.12,7.22-1.95,2.08-4.36,3.12-7.22,3.12h-48.77c-2.86,0-5.33-1.04-7.41-3.12-1.95-1.95-2.93-4.36-2.93-7.22V94.15c0-5.85-2.08-10.79-6.24-14.83-.91-.91-1.82-1.76-2.73-2.54-2.6-1.69-3.9-4.03-3.9-7.02,0-2.34.84-4.36,2.54-6.05,1.69-1.69,3.71-2.54,6.05-2.54h142.62c24.06,0,44.61,8.52,61.65,25.56,16.91,17.04,25.36,37.53,25.36,61.46,0,15.09-3.58,29.14-10.73,42.14-7.02,12.62-16.58,22.89-28.68,30.83l44.29,84.09c1.04,1.95,2.27,3.71,3.71,5.27.91.78,1.88,1.56,2.93,2.34Zm-79.6-170.71c0-4.81-1.69-8.91-5.07-12.29-3.51-3.51-7.68-5.27-12.49-5.27h-65.16c-1.3,0-2.47.52-3.51,1.56-1.04,1.04-1.56,2.28-1.56,3.71v36.87c0,1.43.52,2.6,1.56,3.51,1.04,1.04,2.21,1.56,3.51,1.56h65.16c4.81,0,8.97-1.69,12.49-5.07,3.38-3.38,5.07-7.48,5.07-12.29v-12.29Z"/>
    <path class="cls-1" d="m2518.85,61.18c2.21,0,4.03,1.04,5.46,3.12,1.43,2.21,1.69,4.75.78,7.61l-90.53,146.52v99.7c0,2.86-.98,5.27-2.93,7.22-2.08,2.08-4.55,3.12-7.41,3.12h-51.12c-2.86,0-5.27-1.04-7.22-3.12-2.08-1.95-3.12-4.36-3.12-7.22v-99.7l-83.89-136.18c-.65-1.04-1.37-1.95-2.15-2.73,0,.13-1.37-.78-4.1-2.73-2.6-1.82-3.9-4.16-3.9-7.02,0-2.34.85-4.36,2.54-6.05,1.69-1.69,3.71-2.54,6.05-2.54h66.14c4.16.26,7.48,2.54,9.95,6.83l45.26,85.26,45.26-85.26c2.6-4.29,5.92-6.57,9.95-6.83h64.97Z"/>
  </g>
</svg>