<?xml version="1.0" encoding="utf-8"?>
<!-- Generator: Adobe Illustrator 27.3.1, SVG Export Plug-In . SVG Version: 6.00 Build 0)  -->
<svg version="1.1" id="레이어_1" xmlns="http://www.w3.org/2000/svg" xmlns:xlink="http://www.w3.org/1999/xlink" x="0px"
	 y="0px" viewBox="0 0 164 26" style="enable-background:new 0 0 164 26;" xml:space="preserve">
<style type="text/css">
	.st0{fill:url(#SVGID_1_);}
	.st1{fill:url(#SVGID_00000023966950655939352210000011644445841668518567_);}
	.st2{fill:url(#SVGID_00000176014367808929195640000002705094014901331360_);}
	.st3{fill:url(#SVGID_00000179617152202444027310000009731408699732073111_);}
	.st4{fill:url(#SVGID_00000048474843382057268760000014890210240657506440_);}
	.st5{fill:url(#SVGID_00000013872737787425066660000016693687529528694403_);}
	.st6{fill:url(#SVGID_00000106140993395226350070000006013130502606091706_);}
	.st7{fill:#FFFFFF;}
	.st8{fill:#444444;}
</style>
<g>
	<g>
		<linearGradient id="SVGID_1_" gradientUnits="userSpaceOnUse" x1="25.9346" y1="2.2115" x2="25.9346" y2="26.57">
			<stop  offset="5.154640e-03" style="stop-color:#FED208"/>
			<stop  offset="0.4061" style="stop-color:#FED00B"/>
			<stop  offset="0.6457" style="stop-color:#FDC913"/>
			<stop  offset="0.8422" style="stop-color:#FCBE21"/>
			<stop  offset="1" style="stop-color:#FBAF33"/>
		</linearGradient>
		<path class="st0" d="M35.3,2.2h-1.8v0.1c0,0.2-0.1,0.3-0.3,0.3h-3.6c-0.2,0-0.3-0.1-0.3-0.3V2.2h-6.9v0.1c0,0.2-0.1,0.3-0.3,0.3
			h-3.6c-0.2,0-0.3-0.1-0.3-0.3V2.2h-1.8c-1.5,0-2.8,1.2-2.8,2.8v18.8c0,1.5,1.2,2.8,2.8,2.8h18.8c1.5,0,2.8-1.2,2.8-2.8V5
			C38.1,3.5,36.9,2.2,35.3,2.2z"/>
		
			<linearGradient id="SVGID_00000064339350349601780520000001743048614180220839_" gradientUnits="userSpaceOnUse" x1="18.3843" y1="1.3207" x2="22.4958" y2="1.3207">
			<stop  offset="5.154640e-03" style="stop-color:#FED208"/>
			<stop  offset="0.8626" style="stop-color:#FED208"/>
			<stop  offset="1" style="stop-color:#FED208"/>
		</linearGradient>
		<path style="fill:url(#SVGID_00000064339350349601780520000001743048614180220839_);" d="M22.5,0.7c0-0.2-0.1-0.3-0.3-0.3h-3.6
			c-0.2,0-0.3,0.1-0.3,0.3v1.5h4.1V0.7z"/>
		
			<linearGradient id="SVGID_00000024001074602616199630000014724635336395822261_" gradientUnits="userSpaceOnUse" x1="20.44" y1="2.2115" x2="20.44" y2="26.5698">
			<stop  offset="5.154640e-03" style="stop-color:#FED208"/>
			<stop  offset="0.4061" style="stop-color:#FED00B"/>
			<stop  offset="0.6457" style="stop-color:#FDC913"/>
			<stop  offset="0.8422" style="stop-color:#FCBE21"/>
			<stop  offset="1" style="stop-color:#FBAF33"/>
		</linearGradient>
		<path style="fill:url(#SVGID_00000024001074602616199630000014724635336395822261_);" d="M18.7,2.6h3.6c0.2,0,0.3-0.1,0.3-0.3V2.2
			h-4.1v0.1C18.4,2.5,18.5,2.6,18.7,2.6z"/>
		
			<linearGradient id="SVGID_00000049206359679215735910000003709733040575983796_" gradientUnits="userSpaceOnUse" x1="18.3843" y1="2.4234" x2="22.4958" y2="2.4234">
			<stop  offset="5.154640e-03" style="stop-color:#FED208"/>
			<stop  offset="0.8626" style="stop-color:#FED208"/>
			<stop  offset="1" style="stop-color:#FED208"/>
		</linearGradient>
		<path style="fill:url(#SVGID_00000049206359679215735910000003709733040575983796_);" d="M18.7,2.6h3.6c0.2,0,0.3-0.1,0.3-0.3V2.2
			h-4.1v0.1C18.4,2.5,18.5,2.6,18.7,2.6z"/>
		
			<linearGradient id="SVGID_00000096059945938745827780000009913984241313361838_" gradientUnits="userSpaceOnUse" x1="29.3734" y1="1.3207" x2="33.485" y2="1.3207">
			<stop  offset="5.154640e-03" style="stop-color:#FED208"/>
			<stop  offset="0.8626" style="stop-color:#FED208"/>
			<stop  offset="1" style="stop-color:#FED208"/>
		</linearGradient>
		<path style="fill:url(#SVGID_00000096059945938745827780000009913984241313361838_);" d="M33.5,0.7c0-0.2-0.1-0.3-0.3-0.3h-3.6
			c-0.2,0-0.3,0.1-0.3,0.3v1.5h4.1V0.7z"/>
		
			<linearGradient id="SVGID_00000143598638000269501970000009171671606775166397_" gradientUnits="userSpaceOnUse" x1="31.4292" y1="2.2115" x2="31.4292" y2="26.5698">
			<stop  offset="5.154640e-03" style="stop-color:#FED208"/>
			<stop  offset="0.4061" style="stop-color:#FED00B"/>
			<stop  offset="0.6457" style="stop-color:#FDC913"/>
			<stop  offset="0.8422" style="stop-color:#FCBE21"/>
			<stop  offset="1" style="stop-color:#FBAF33"/>
		</linearGradient>
		<path style="fill:url(#SVGID_00000143598638000269501970000009171671606775166397_);" d="M29.7,2.6h3.6c0.2,0,0.3-0.1,0.3-0.3V2.2
			h-4.1v0.1C29.4,2.5,29.5,2.6,29.7,2.6z"/>
		
			<linearGradient id="SVGID_00000096034690488565425060000012178109320236238521_" gradientUnits="userSpaceOnUse" x1="29.3734" y1="2.4234" x2="33.485" y2="2.4234">
			<stop  offset="5.154640e-03" style="stop-color:#FED208"/>
			<stop  offset="0.8626" style="stop-color:#FED208"/>
			<stop  offset="1" style="stop-color:#FED208"/>
		</linearGradient>
		<path style="fill:url(#SVGID_00000096034690488565425060000012178109320236238521_);" d="M29.7,2.6h3.6c0.2,0,0.3-0.1,0.3-0.3V2.2
			h-4.1v0.1C29.4,2.5,29.5,2.6,29.7,2.6z"/>
	</g>
	<g>
		<g>
			<path class="st7" d="M27.6,10.7c-0.3,0-0.6,0-0.9,0.1c-0.1,0-0.3,0-0.4-0.1c-0.8-0.9-1.8-1.4-3-1.4c-2.2,0-3.9,1.8-3.9,3.9
				c0,0.1,0,0.2,0,0.4c0,0.2-0.1,0.3-0.2,0.4c-1,0.5-1.6,1.5-1.6,2.6c0,1.6,1.3,3,3,3h10.8c1.6,0,3-1.3,3-3c0-1.5-1.1-2.8-2.6-2.9
				c-0.1,0-0.3-0.1-0.3-0.3C30.8,11.7,29.3,10.7,27.6,10.7L27.6,10.7z M16.8,16.6c0-1.3,0.7-2.5,1.8-3.2c0-0.1,0-0.1,0-0.2
				c0-2.6,2.1-4.7,4.7-4.7c1.3,0,2.5,0.5,3.4,1.5c0.3-0.1,0.6-0.1,0.9-0.1c1.9,0,3.7,1.2,4.4,3c1.8,0.3,3.1,1.9,3.1,3.7
				c0,2.1-1.7,3.7-3.7,3.7H20.5C18.5,20.3,16.8,18.6,16.8,16.6z"/>
			<path class="st7" d="M27.6,10.7c-0.3,0-0.6,0-0.9,0.1c-0.1,0-0.3,0-0.4-0.1c-0.8-0.9-1.8-1.4-3-1.4c-2.2,0-3.9,1.8-3.9,3.9
				c0,0.1,0,0.2,0,0.4c0,0.2-0.1,0.3-0.2,0.4c-1,0.5-1.6,1.5-1.6,2.6c0,1.6,1.3,3,3,3h10.8c1.6,0,3-1.3,3-3c0-1.5-1.1-2.8-2.6-2.9
				c-0.1,0-0.3-0.1-0.3-0.3C30.8,11.7,29.3,10.7,27.6,10.7L27.6,10.7z M16.8,16.6c0-1.3,0.7-2.5,1.8-3.2c0-0.1,0-0.1,0-0.2
				c0-2.6,2.1-4.7,4.7-4.7c1.3,0,2.5,0.5,3.4,1.5c0.3-0.1,0.6-0.1,0.9-0.1c1.9,0,3.7,1.2,4.4,3c1.8,0.3,3.1,1.9,3.1,3.7
				c0,2.1-1.7,3.7-3.7,3.7H20.5C18.5,20.3,16.8,18.6,16.8,16.6z"/>
		</g>
	</g>
</g>
<g>
	<path class="st8" d="M49.9,20.6V6.4h7.8c1.6,0,2.8,0.4,3.5,1.1c0.7,0.8,1.1,1.6,1.1,2.6c0,0.7-0.2,1.3-0.6,1.9
		c-0.4,0.6-1.1,1-1.9,1.2c2,0.4,3,1.5,3,3.3c0,1.1-0.3,2-1,2.8c-0.7,0.8-2.2,1.2-4.5,1.2H49.9z M54.2,11.8h2.2
		c0.5,0,0.9-0.1,1.2-0.4c0.2-0.3,0.3-0.5,0.3-0.8c0-0.8-0.5-1.2-1.6-1.2h-2.1V11.8z M54.2,17.4h2.3c0.6,0,1-0.1,1.2-0.4
		c0.3-0.3,0.4-0.6,0.4-0.9c0-0.3-0.1-0.6-0.4-0.9c-0.3-0.3-0.7-0.4-1.4-0.4h-2.1V17.4z"/>
	<path class="st8" d="M69.3,6.4v14.2h-4.7V6.4H69.3z"/>
	<path class="st8" d="M83.8,17.3v3.4H71.1v-2.7l6.8-8.2h-6.3V6.4h12v2.8L77,17.3H83.8z"/>
	<path class="st8" d="M84.6,17.2l2.7-0.5c0.3,1.4,1.6,2.1,3.7,2.1c1,0,1.7-0.2,2.3-0.5c0.5-0.4,0.8-0.8,0.8-1.3
		c0-0.4-0.1-0.7-0.4-1.1c-0.2-0.3-0.7-0.6-1.5-0.8l-2.9-0.7c-1-0.2-1.7-0.5-2.2-0.8c-0.5-0.3-0.9-0.7-1.1-1.3
		c-0.3-0.6-0.4-1.2-0.4-1.8c0-1.3,0.5-2.3,1.5-3.1c1-0.8,2.3-1.2,3.9-1.2c1.3,0,2.5,0.3,3.5,0.8c1,0.5,1.7,1.3,2,2.3l-2.6,0.6
		c-0.4-1.1-1.3-1.6-2.8-1.6c-0.9,0-1.5,0.2-2,0.5c-0.5,0.3-0.7,0.8-0.7,1.3c0,0.8,0.7,1.4,2.1,1.7l2.6,0.6c1.6,0.4,2.6,0.9,3.2,1.6
		c0.5,0.7,0.8,1.5,0.8,2.4c0,1.4-0.6,2.5-1.7,3.3c-1.1,0.8-2.6,1.2-4.4,1.2c-1.5,0-2.8-0.3-4-0.9C85.8,19.3,85,18.4,84.6,17.2z"/>
	<path class="st8" d="M104.7,20.6h-3v-12h-4.1V6.4h11.1v2.2h-4.1V20.6z"/>
	<path class="st8" d="M115.7,20.8c-2,0-3.6-0.7-4.7-2.1c-1.1-1.4-1.7-3.2-1.7-5.2c0-2.1,0.6-3.8,1.8-5.2c1.2-1.4,2.8-2.1,4.8-2.1
		c2,0,3.6,0.7,4.7,2.1c1.2,1.4,1.7,3.1,1.7,5.2c0,2.2-0.6,4-1.8,5.3C119.3,20.1,117.7,20.8,115.7,20.8z M115.7,18.8
		c1,0,1.8-0.4,2.5-1.1c0.7-0.8,1-2.1,1-4.2c0-1.6-0.3-2.9-0.9-3.8c-0.6-0.9-1.4-1.4-2.6-1.4c-2.4,0-3.5,1.8-3.5,5.3
		c0,1.7,0.3,3,0.9,3.9C113.8,18.3,114.6,18.8,115.7,18.8z"/>
	<path class="st8" d="M136.7,20.6h-2.9l-2.4-5.8h-3.9v5.8h-2.8V6.4h6.6c1.8,0,3.2,0.4,4.1,1.2c0.9,0.8,1.3,1.8,1.3,3
		c0,1.8-0.9,3.1-2.8,3.8L136.7,20.6z M127.6,12.7h3.4c1,0,1.7-0.2,2.2-0.6c0.5-0.4,0.7-0.9,0.7-1.6c0-0.6-0.2-1.1-0.7-1.5
		c-0.5-0.4-1.1-0.6-2-0.6h-3.6V12.7z"/>
	<path class="st8" d="M145.3,20.6h-2.9v-6l-5.2-8.2h3.3l3.6,5.9l3.5-5.9h2.6l-4.9,8.2V20.6z"/>
</g>
</svg>
