<?xml version="1.0" encoding="utf-8"?>
<!-- Generator: Adobe Illustrator 27.7.0, SVG Export Plug-In . SVG Version: 6.00 Build 0)  -->
<svg version="1.1" id="레이어_1" xmlns="http://www.w3.org/2000/svg" xmlns:xlink="http://www.w3.org/1999/xlink" x="0px"
	 y="0px" viewBox="0 0 164 26" style="enable-background:new 0 0 164 26;" xml:space="preserve">
<style type="text/css">
	.st0{fill:url(#SVGID_1_);}
	.st1{fill:url(#SVGID_00000105395051334387546030000012119192452389817995_);}
	.st2{fill:url(#SVGID_00000057850992061278118320000008865464074688701867_);}
	.st3{fill:url(#SVGID_00000072996224471867318050000006193837944268679073_);}
	.st4{fill:url(#SVGID_00000091002548208666505120000001007668981381398710_);}
</style>
<g>
	<g>
		<linearGradient id="SVGID_1_" gradientUnits="userSpaceOnUse" x1="5.2385" y1="4.0263" x2="2.4163" y2="16.5729">
			<stop  offset="0" style="stop-color:#E0B411"/>
			<stop  offset="1" style="stop-color:#BE7F0F"/>
		</linearGradient>
		<path class="st0" d="M5.2,9.9h2.4V6.5H5.2C2.3,6.5,0,8.8,0,11.7v3.4C0,12.2,2.3,9.9,5.2,9.9z"/>
		
			<linearGradient id="SVGID_00000105418970693296936420000003973469580412050607_" gradientUnits="userSpaceOnUse" x1="5.3189" y1="13.4431" x2="2.2128" y2="27.2521">
			<stop  offset="0" style="stop-color:#E0B411"/>
			<stop  offset="1" style="stop-color:#BE7F0F"/>
		</linearGradient>
		<path style="fill:url(#SVGID_00000105418970693296936420000003973469580412050607_);" d="M5.2,16.1c-2.8,0-5.2,2.3-5.2,5.2v4.4
			l7.6-5.8v-3.7H5.2z"/>
		
			<linearGradient id="SVGID_00000043444025978329269760000002191544390229512626_" gradientUnits="userSpaceOnUse" x1="20.6419" y1="17.5447" x2="17.0306" y2="12.53">
			<stop  offset="0" style="stop-color:#D39924"/>
			<stop  offset="1" style="stop-color:#B1810D"/>
		</linearGradient>
		<path style="fill:url(#SVGID_00000043444025978329269760000002191544390229512626_);" d="M14.3,16.1l1.8,0c0.6,0,1.5,0.7,1.5,1.7
			c0,1-0.9,1.7-1.5,1.7h1.2c3.7,0,7.3-3.6,5.9-6.6l0,0c-0.5-0.6-1.1-1.2-1.8-1.6C20.2,14,17.5,16,14.3,16.1z"/>
		
			<linearGradient id="SVGID_00000088851493131788702300000018000027400599239604_" gradientUnits="userSpaceOnUse" x1="-9.094947e-13" y1="10.7907" x2="21.9735" y2="10.7907">
			<stop  offset="0" style="stop-color:#ECCC43"/>
			<stop  offset="1" style="stop-color:#FBAF33"/>
		</linearGradient>
		<path style="fill:url(#SVGID_00000088851493131788702300000018000027400599239604_);" d="M0,21.3c0-2.8,2.3-5.2,5.2-5.2h8.9
			c4.4,0,7.9-3.5,7.9-7.9c0-4.4-3.5-7.9-7.9-7.9H5.2C2.3,0.3,0,2.6,0,5.5v6.2c0-2.8,2.3-5.2,5.2-5.2h8c0.6,0,1.5,0.7,1.5,1.7
			c0,1-0.9,1.7-1.5,1.7h-8C2.3,9.9,0,12.2,0,15.1v1.1V21.3z"/>
		
			<linearGradient id="SVGID_00000128446062792134718510000002503112335506143386_" gradientUnits="userSpaceOnUse" x1="-9.094947e-13" y1="19.2596" x2="24.9177" y2="19.2596">
			<stop  offset="0" style="stop-color:#F5D219"/>
			<stop  offset="1" style="stop-color:#FBAF33"/>
		</linearGradient>
		<path style="fill:url(#SVGID_00000128446062792134718510000002503112335506143386_);" d="M0,25.7h17c4.4,0,7.9-3.5,7.9-7.9
			c0-1.9-0.7-3.6-1.7-5l0,0c1.4,3.1-2.2,6.6-5.9,6.6H5.2c-2.8,0-5.2,2.3-5.2,5.2V25.7z"/>
	</g>
	<g>
		<path d="M51.2,13.6c0.4,0.6,0.6,1.4,0.6,2.4c0,1.8-0.5,3.2-1.6,4.1c-1.1,1-2.7,1.5-4.8,1.5h-7.8c-0.2,0-0.3-0.1-0.5-0.2
			C37.1,21.3,37,21.2,37,21V6.4c0-0.4-0.1-0.7-0.4-1c-0.1-0.1-0.1-0.1-0.2-0.2c-0.2-0.1-0.3-0.3-0.3-0.5c0-0.2,0.1-0.3,0.2-0.4
			c0.1-0.1,0.2-0.2,0.4-0.2l1.4,0h7.4c2.1,0,3.6,0.4,4.5,1.2c0.9,0.8,1.4,1.9,1.4,3.3c0,0.9-0.2,1.7-0.6,2.2
			c-0.4,0.5-0.9,0.9-1.5,1.2C50.2,12.5,50.8,13,51.2,13.6z M41.4,11.1c0,0.1,0,0.2,0.1,0.2c0.1,0.1,0.1,0.1,0.2,0.1H45
			c0.6,0,1-0.1,1.2-0.4c0.2-0.3,0.3-0.6,0.3-1.1c0-0.5-0.1-0.8-0.3-1.1C46,8.6,45.6,8.4,45,8.4h-3.3c-0.1,0-0.2,0-0.2,0.1
			c-0.1,0.1-0.1,0.1-0.1,0.2V11.1z M46.5,17c0.3-0.3,0.4-0.7,0.4-1.2c0-0.5-0.1-0.9-0.4-1.2c-0.3-0.3-0.7-0.4-1.3-0.4h-3.5
			c-0.1,0-0.2,0-0.2,0.1c-0.1,0.1-0.1,0.1-0.1,0.2v2.7c0,0.1,0,0.2,0.1,0.2c0.1,0.1,0.1,0.1,0.2,0.1h3.5
			C45.8,17.5,46.2,17.3,46.5,17z"/>
		<path d="M58.4,4.3c0.2,0,0.3,0.1,0.5,0.2C59,4.6,59.1,4.8,59.1,5v16c0,0.2-0.1,0.3-0.2,0.5c-0.1,0.1-0.3,0.2-0.5,0.2h-3.3
			c-0.2,0-0.3-0.1-0.5-0.2c-0.1-0.1-0.2-0.3-0.2-0.5V6.4c0-0.4-0.1-0.7-0.4-1c-0.1-0.1-0.1-0.1-0.2-0.2c-0.2-0.1-0.3-0.3-0.3-0.5
			c0-0.2,0.1-0.3,0.2-0.4c0.1-0.1,0.2-0.2,0.4-0.2H58.4z"/>
		<path d="M68.7,17.1c-0.1,0.1-0.1,0.2-0.1,0.2c0,0.1,0.1,0.1,0.2,0.1h5.6c0.4,0,0.7-0.1,1-0.4c0.1-0.1,0.1-0.1,0.2-0.2
			c0.1-0.2,0.3-0.3,0.5-0.3c0.2,0,0.3,0.1,0.4,0.2c0.1,0.1,0.2,0.2,0.2,0.4V21c0,0.2-0.1,0.3-0.2,0.5c-0.1,0.1-0.3,0.2-0.5,0.2H62.4
			c-0.2,0-0.3-0.1-0.5-0.2c-0.1-0.1-0.2-0.3-0.2-0.5v-2.8c0-0.2,0.1-0.3,0.2-0.5l7.8-8.9c0.1-0.1,0.1-0.2,0.1-0.2
			c0-0.1-0.1-0.1-0.2-0.1h-7.2c-0.2,0-0.3-0.1-0.5-0.2c-0.1-0.1-0.2-0.3-0.2-0.5V5c0-0.2,0.1-0.3,0.2-0.5c0.1-0.1,0.3-0.2,0.5-0.2
			H76c0.2,0,0.3,0.1,0.5,0.2c0.1,0.1,0.2,0.3,0.2,0.5v2.8c0,0.2-0.1,0.3-0.2,0.5L68.7,17.1z"/>
		<path d="M90.9,11.8c0.5,0.2,0.9,0.5,1.3,0.7c1.2,0.9,1.8,2.2,1.8,4c0,1.6-0.6,2.9-1.8,3.9c-1.4,1.2-3.3,1.8-5.7,1.8
			c-1.8,0-3.3-0.4-4.6-1.1c-1.3-0.7-2.1-1.7-2.6-3v0c-0.1-0.2-0.2-0.3-0.3-0.5c-0.1-0.1-0.1-0.1-0.2-0.2c-0.2-0.1-0.3-0.3-0.3-0.5
			c0-0.2,0.1-0.3,0.2-0.4c0.1-0.1,0.2-0.2,0.4-0.2h4.2c0.2,0,0.4,0.1,0.5,0.4c0.1,0.4,0.4,0.8,0.9,1c0.5,0.3,1.1,0.4,1.8,0.4
			c0.8,0,1.5-0.2,2-0.5c0.5-0.3,0.7-0.8,0.7-1.4c0-1-1-1.5-2.9-1.6c-2.2-0.1-4-0.6-5.2-1.5c-1.3-1-1.9-2.3-1.9-4
			c0-1.5,0.6-2.9,1.8-4c1.4-1.2,3.2-1.8,5.4-1.8c2,0,3.6,0.5,4.9,1.4c1.3,0.9,2.1,2.2,2.3,3.8c0,0.1-0.1,0.3-0.2,0.4
			c-0.1,0.1-0.2,0.2-0.4,0.2h-3.7C89.2,9.3,89,9.2,89,9c-0.3-0.9-1.1-1.3-2.4-1.3c-1.7,0-2.5,0.6-2.5,1.8c0,0.6,0.2,1,0.7,1.2
			c0.2,0.1,0.4,0.2,0.6,0.2c0.3,0.1,0.7,0.1,1.3,0.2C88.8,11.3,90.2,11.6,90.9,11.8z"/>
		<path d="M110.3,4.3c0.2,0,0.3,0.1,0.5,0.2c0.1,0.1,0.2,0.3,0.2,0.5v2.8c0,0.2-0.1,0.3-0.2,0.5c-0.1,0.1-0.3,0.2-0.5,0.2h-4.5
			c-0.1,0-0.2,0-0.2,0.1c-0.1,0.1-0.1,0.1-0.1,0.2V21c0,0.2-0.1,0.3-0.2,0.5c-0.1,0.1-0.3,0.2-0.5,0.2h-3.3c-0.2,0-0.3-0.1-0.5-0.2
			c-0.1-0.1-0.2-0.3-0.2-0.5V8.8c0-0.1,0-0.2-0.1-0.2c-0.1-0.1-0.1-0.1-0.2-0.1h-4.5c-0.2,0-0.3-0.1-0.5-0.2
			c-0.1-0.1-0.2-0.3-0.2-0.5V6.4c0-0.4-0.1-0.7-0.4-1c-0.1-0.1-0.1-0.1-0.2-0.2c-0.2-0.1-0.3-0.3-0.3-0.5c0-0.2,0.1-0.3,0.2-0.4
			c0.1-0.1,0.2-0.2,0.4-0.2H110.3z"/>
		<path d="M120.7,3.7c2.6,0,4.8,0.9,6.6,2.7c1.8,1.8,2.7,4,2.7,6.6c0,2.6-0.9,4.8-2.7,6.6c-1.8,1.8-4,2.7-6.6,2.7
			c-2.6,0-4.8-0.9-6.6-2.7c-1.8-1.8-2.7-4-2.7-6.6c0-2.6,0.9-4.8,2.7-6.6C115.9,4.6,118.1,3.7,120.7,3.7z M120.7,17.8
			c1.3,0,2.4-0.5,3.3-1.4c0.9-0.9,1.3-2.1,1.3-3.4c0-1.3-0.4-2.5-1.3-3.4c-0.9-0.9-2-1.4-3.3-1.4c-1.3,0-2.4,0.5-3.3,1.4
			c-0.9,0.9-1.3,2.1-1.3,3.4c0,1.3,0.4,2.5,1.3,3.4C118.3,17.3,119.4,17.8,120.7,17.8z"/>
		<path d="M147.3,20.6c0.2,0.1,0.3,0.3,0.3,0.5c0,0.2-0.1,0.3-0.2,0.4c-0.1,0.1-0.2,0.2-0.4,0.2h-3.7c-0.3,0-0.5-0.1-0.6-0.4
			l-2.9-5.5c-0.1-0.1-0.2-0.2-0.3-0.2h-2.7c-0.1,0-0.2,0-0.2,0.1c-0.1,0.1-0.1,0.1-0.1,0.2v5c0,0.2-0.1,0.3-0.2,0.5
			c-0.1,0.1-0.3,0.2-0.5,0.2h-3.2c-0.2,0-0.3-0.1-0.5-0.2c-0.1-0.1-0.2-0.3-0.2-0.5V6.4c0-0.4-0.1-0.7-0.4-1
			c-0.1-0.1-0.1-0.1-0.2-0.2c-0.2-0.1-0.3-0.3-0.3-0.5c0-0.2,0.1-0.3,0.2-0.4c0.1-0.1,0.2-0.2,0.4-0.2h9.3c1.6,0,2.9,0.6,4,1.7
			c1.1,1.1,1.6,2.4,1.6,4c0,1-0.2,1.9-0.7,2.7c-0.5,0.8-1.1,1.5-1.9,2l2.9,5.5c0.1,0.1,0.1,0.2,0.2,0.3
			C147.2,20.5,147.3,20.6,147.3,20.6z M142.2,9.5c0-0.3-0.1-0.6-0.3-0.8c-0.2-0.2-0.5-0.3-0.8-0.3h-4.2c-0.1,0-0.2,0-0.2,0.1
			c-0.1,0.1-0.1,0.1-0.1,0.2v2.4c0,0.1,0,0.2,0.1,0.2c0.1,0.1,0.1,0.1,0.2,0.1h4.2c0.3,0,0.6-0.1,0.8-0.3c0.2-0.2,0.3-0.5,0.3-0.8
			V9.5z"/>
		<path d="M163.6,4.3c0.1,0,0.3,0.1,0.4,0.2C164,4.6,164,4.8,164,5l-5.9,9.5V21c0,0.2-0.1,0.3-0.2,0.5c-0.1,0.1-0.3,0.2-0.5,0.2
			h-3.3c-0.2,0-0.3-0.1-0.5-0.2c-0.1-0.1-0.2-0.3-0.2-0.5v-6.5L148,5.7c0-0.1-0.1-0.1-0.1-0.2c0,0-0.1-0.1-0.3-0.2
			c-0.2-0.1-0.3-0.3-0.3-0.5c0-0.2,0.1-0.3,0.2-0.4c0.1-0.1,0.2-0.2,0.4-0.2h4.3c0.3,0,0.5,0.2,0.6,0.4l2.9,5.5l2.9-5.5
			c0.2-0.3,0.4-0.4,0.6-0.4H163.6z"/>
	</g>
</g>
</svg>
