<?xml version="1.0" encoding="utf-8"?>
<!-- Generator: Adobe Illustrator 27.3.1, SVG Export Plug-In . SVG Version: 6.00 Build 0)  -->
<svg version="1.1" id="레이어_1" xmlns="http://www.w3.org/2000/svg" xmlns:xlink="http://www.w3.org/1999/xlink" x="0px"
	 y="0px" viewBox="0 0 164 26" style="enable-background:new 0 0 164 26;" xml:space="preserve">
<style type="text/css">
	.st0{fill:url(#SVGID_1_);}
	.st1{fill:url(#SVGID_00000093859849699352369780000010908393536689108630_);}
	.st2{fill:url(#SVGID_00000158726180353814570920000014156483178678539139_);}
	.st3{fill:url(#SVGID_00000098927553558751533480000009340537164152073095_);}
	.st4{fill:url(#SVGID_00000048502639223364844750000014739764245465623434_);}
	.st5{fill:url(#SVGID_00000142142428329927368550000017422863395277621163_);}
	.st6{fill:url(#SVGID_00000072280457153658892580000010483382648111934627_);}
	.st7{fill:#FFFFFF;}
</style>
<g>
	<g>
		<linearGradient id="SVGID_1_" gradientUnits="userSpaceOnUse" x1="25.9346" y1="1.7115" x2="25.9346" y2="26.07">
			<stop  offset="5.154640e-03" style="stop-color:#FED208"/>
			<stop  offset="0.4061" style="stop-color:#FED00B"/>
			<stop  offset="0.6457" style="stop-color:#FDC913"/>
			<stop  offset="0.8422" style="stop-color:#FCBE21"/>
			<stop  offset="1" style="stop-color:#FBAF33"/>
		</linearGradient>
		<path class="st0" d="M35.3,1.7h-1.8v0.1c0,0.2-0.1,0.3-0.3,0.3h-3.6c-0.2,0-0.3-0.1-0.3-0.3V1.7h-6.9v0.1c0,0.2-0.1,0.3-0.3,0.3
			h-3.6c-0.2,0-0.3-0.1-0.3-0.3V1.7h-1.8c-1.5,0-2.8,1.2-2.8,2.8v18.8c0,1.5,1.2,2.8,2.8,2.8h18.8c1.5,0,2.8-1.2,2.8-2.8V4.5
			C38.1,3,36.9,1.7,35.3,1.7z"/>
		
			<linearGradient id="SVGID_00000058568197696817482570000006901780035838104244_" gradientUnits="userSpaceOnUse" x1="18.3843" y1="0.8207" x2="22.4958" y2="0.8207">
			<stop  offset="5.154640e-03" style="stop-color:#FED208"/>
			<stop  offset="0.8626" style="stop-color:#FED208"/>
			<stop  offset="1" style="stop-color:#FED208"/>
		</linearGradient>
		<path style="fill:url(#SVGID_00000058568197696817482570000006901780035838104244_);" d="M22.5,0.2c0-0.2-0.1-0.3-0.3-0.3h-3.6
			c-0.2,0-0.3,0.1-0.3,0.3v1.5h4.1V0.2z"/>
		
			<linearGradient id="SVGID_00000036939278157078025600000012841861977959722902_" gradientUnits="userSpaceOnUse" x1="20.44" y1="1.7115" x2="20.44" y2="26.0698">
			<stop  offset="5.154640e-03" style="stop-color:#FED208"/>
			<stop  offset="0.4061" style="stop-color:#FED00B"/>
			<stop  offset="0.6457" style="stop-color:#FDC913"/>
			<stop  offset="0.8422" style="stop-color:#FCBE21"/>
			<stop  offset="1" style="stop-color:#FBAF33"/>
		</linearGradient>
		<path style="fill:url(#SVGID_00000036939278157078025600000012841861977959722902_);" d="M18.7,2.1h3.6c0.2,0,0.3-0.1,0.3-0.3V1.7
			h-4.1v0.1C18.4,2,18.5,2.1,18.7,2.1z"/>
		
			<linearGradient id="SVGID_00000056398971788466585620000009953759097986821268_" gradientUnits="userSpaceOnUse" x1="18.3843" y1="1.9234" x2="22.4958" y2="1.9234">
			<stop  offset="5.154640e-03" style="stop-color:#FED208"/>
			<stop  offset="0.8626" style="stop-color:#FED208"/>
			<stop  offset="1" style="stop-color:#FED208"/>
		</linearGradient>
		<path style="fill:url(#SVGID_00000056398971788466585620000009953759097986821268_);" d="M18.7,2.1h3.6c0.2,0,0.3-0.1,0.3-0.3V1.7
			h-4.1v0.1C18.4,2,18.5,2.1,18.7,2.1z"/>
		
			<linearGradient id="SVGID_00000145057532540580125420000017635789865470644129_" gradientUnits="userSpaceOnUse" x1="29.3734" y1="0.8207" x2="33.485" y2="0.8207">
			<stop  offset="5.154640e-03" style="stop-color:#FED208"/>
			<stop  offset="0.8626" style="stop-color:#FED208"/>
			<stop  offset="1" style="stop-color:#FED208"/>
		</linearGradient>
		<path style="fill:url(#SVGID_00000145057532540580125420000017635789865470644129_);" d="M33.5,0.2c0-0.2-0.1-0.3-0.3-0.3h-3.6
			c-0.2,0-0.3,0.1-0.3,0.3v1.5h4.1V0.2z"/>
		
			<linearGradient id="SVGID_00000029750812454539466040000003088932732275636411_" gradientUnits="userSpaceOnUse" x1="31.4292" y1="1.7115" x2="31.4292" y2="26.0698">
			<stop  offset="5.154640e-03" style="stop-color:#FED208"/>
			<stop  offset="0.4061" style="stop-color:#FED00B"/>
			<stop  offset="0.6457" style="stop-color:#FDC913"/>
			<stop  offset="0.8422" style="stop-color:#FCBE21"/>
			<stop  offset="1" style="stop-color:#FBAF33"/>
		</linearGradient>
		<path style="fill:url(#SVGID_00000029750812454539466040000003088932732275636411_);" d="M29.7,2.1h3.6c0.2,0,0.3-0.1,0.3-0.3V1.7
			h-4.1v0.1C29.4,2,29.5,2.1,29.7,2.1z"/>
		
			<linearGradient id="SVGID_00000072994737379990344980000011221866220221316519_" gradientUnits="userSpaceOnUse" x1="29.3734" y1="1.9234" x2="33.485" y2="1.9234">
			<stop  offset="5.154640e-03" style="stop-color:#FED208"/>
			<stop  offset="0.8626" style="stop-color:#FED208"/>
			<stop  offset="1" style="stop-color:#FED208"/>
		</linearGradient>
		<path style="fill:url(#SVGID_00000072994737379990344980000011221866220221316519_);" d="M29.7,2.1h3.6c0.2,0,0.3-0.1,0.3-0.3V1.7
			h-4.1v0.1C29.4,2,29.5,2.1,29.7,2.1z"/>
	</g>
	<g>
		<g>
			<path class="st7" d="M27.6,10.2c-0.3,0-0.6,0-0.9,0.1c-0.1,0-0.3,0-0.4-0.1c-0.8-0.9-1.8-1.4-3-1.4c-2.2,0-3.9,1.8-3.9,3.9
				c0,0.1,0,0.2,0,0.4c0,0.2-0.1,0.3-0.2,0.4c-1,0.5-1.6,1.5-1.6,2.6c0,1.6,1.3,3,3,3h10.8c1.6,0,3-1.3,3-3c0-1.5-1.1-2.8-2.6-2.9
				c-0.1,0-0.3-0.1-0.3-0.3C30.8,11.2,29.3,10.2,27.6,10.2L27.6,10.2z M16.8,16.1c0-1.3,0.7-2.5,1.8-3.2c0-0.1,0-0.1,0-0.2
				c0-2.6,2.1-4.7,4.7-4.7c1.3,0,2.5,0.5,3.4,1.5c0.3-0.1,0.6-0.1,0.9-0.1c1.9,0,3.7,1.2,4.4,3c1.8,0.3,3.1,1.9,3.1,3.7
				c0,2.1-1.7,3.7-3.7,3.7H20.5C18.5,19.8,16.8,18.1,16.8,16.1z"/>
			<path class="st7" d="M27.6,10.2c-0.3,0-0.6,0-0.9,0.1c-0.1,0-0.3,0-0.4-0.1c-0.8-0.9-1.8-1.4-3-1.4c-2.2,0-3.9,1.8-3.9,3.9
				c0,0.1,0,0.2,0,0.4c0,0.2-0.1,0.3-0.2,0.4c-1,0.5-1.6,1.5-1.6,2.6c0,1.6,1.3,3,3,3h10.8c1.6,0,3-1.3,3-3c0-1.5-1.1-2.8-2.6-2.9
				c-0.1,0-0.3-0.1-0.3-0.3C30.8,11.2,29.3,10.2,27.6,10.2L27.6,10.2z M16.8,16.1c0-1.3,0.7-2.5,1.8-3.2c0-0.1,0-0.1,0-0.2
				c0-2.6,2.1-4.7,4.7-4.7c1.3,0,2.5,0.5,3.4,1.5c0.3-0.1,0.6-0.1,0.9-0.1c1.9,0,3.7,1.2,4.4,3c1.8,0.3,3.1,1.9,3.1,3.7
				c0,2.1-1.7,3.7-3.7,3.7H20.5C18.5,19.8,16.8,18.1,16.8,16.1z"/>
		</g>
	</g>
</g>
<g>
	<path class="st7" d="M49.9,20.1V5.9h7.8c1.6,0,2.8,0.4,3.5,1.1c0.7,0.8,1.1,1.6,1.1,2.6c0,0.7-0.2,1.3-0.6,1.9
		c-0.4,0.6-1.1,1-1.9,1.2c2,0.4,3,1.5,3,3.3c0,1.1-0.3,2-1,2.8c-0.7,0.8-2.2,1.2-4.5,1.2H49.9z M54.2,11.3h2.2
		c0.5,0,0.9-0.1,1.2-0.4c0.2-0.3,0.3-0.5,0.3-0.8c0-0.8-0.5-1.2-1.6-1.2h-2.1V11.3z M54.2,16.9h2.3c0.6,0,1-0.1,1.2-0.4
		c0.3-0.3,0.4-0.6,0.4-0.9c0-0.3-0.1-0.6-0.4-0.9c-0.3-0.3-0.7-0.4-1.4-0.4h-2.1V16.9z"/>
	<path class="st7" d="M69.3,5.9v14.2h-4.7V5.9H69.3z"/>
	<path class="st7" d="M83.8,16.8v3.4H71.1v-2.7l6.8-8.2h-6.3V5.9h12v2.8L77,16.8H83.8z"/>
	<path class="st7" d="M84.6,16.7l2.7-0.5c0.3,1.4,1.6,2.1,3.7,2.1c1,0,1.7-0.2,2.3-0.5c0.5-0.4,0.8-0.8,0.8-1.3
		c0-0.4-0.1-0.7-0.4-1.1c-0.2-0.3-0.7-0.6-1.5-0.8l-2.9-0.7c-1-0.2-1.7-0.5-2.2-0.8c-0.5-0.3-0.9-0.7-1.1-1.3
		c-0.3-0.6-0.4-1.2-0.4-1.8c0-1.3,0.5-2.3,1.5-3.1c1-0.8,2.3-1.2,3.9-1.2c1.3,0,2.5,0.3,3.5,0.8c1,0.5,1.7,1.3,2,2.3l-2.6,0.6
		c-0.4-1.1-1.3-1.6-2.8-1.6c-0.9,0-1.5,0.2-2,0.5c-0.5,0.3-0.7,0.8-0.7,1.3c0,0.8,0.7,1.4,2.1,1.7l2.6,0.6c1.6,0.4,2.6,0.9,3.2,1.6
		c0.5,0.7,0.8,1.5,0.8,2.4c0,1.4-0.6,2.5-1.7,3.3c-1.1,0.8-2.6,1.2-4.4,1.2c-1.5,0-2.8-0.3-4-0.9C85.8,18.8,85,17.9,84.6,16.7z"/>
	<path class="st7" d="M104.7,20.1h-3v-12h-4.1V5.9h11.1v2.2h-4.1V20.1z"/>
	<path class="st7" d="M115.7,20.3c-2,0-3.6-0.7-4.7-2.1c-1.1-1.4-1.7-3.2-1.7-5.2c0-2.1,0.6-3.8,1.8-5.2c1.2-1.4,2.8-2.1,4.8-2.1
		c2,0,3.6,0.7,4.7,2.1c1.2,1.4,1.7,3.1,1.7,5.2c0,2.2-0.6,4-1.8,5.3C119.3,19.6,117.7,20.3,115.7,20.3z M115.7,18.3
		c1,0,1.8-0.4,2.5-1.1c0.7-0.8,1-2.1,1-4.2c0-1.6-0.3-2.9-0.9-3.8c-0.6-0.9-1.4-1.4-2.6-1.4c-2.4,0-3.5,1.8-3.5,5.3
		c0,1.7,0.3,3,0.9,3.9C113.8,17.8,114.6,18.3,115.7,18.3z"/>
	<path class="st7" d="M136.7,20.1h-2.9l-2.4-5.8h-3.9v5.8h-2.8V5.9h6.6c1.8,0,3.2,0.4,4.1,1.2c0.9,0.8,1.3,1.8,1.3,3
		c0,1.8-0.9,3.1-2.8,3.8L136.7,20.1z M127.6,12.2h3.4c1,0,1.7-0.2,2.2-0.6c0.5-0.4,0.7-0.9,0.7-1.6c0-0.6-0.2-1.1-0.7-1.5
		c-0.5-0.4-1.1-0.6-2-0.6h-3.6V12.2z"/>
	<path class="st7" d="M145.3,20.1h-2.9v-6l-5.2-8.2h3.3l3.6,5.9l3.5-5.9h2.6l-4.9,8.2V20.1z"/>
</g>
</svg>
